# xmcd
#
# Track frame offsets: 
#        150
#        11575
#        21212
#        32387
#        40037
#        60512
#        73075
#        86050
#        96400
#        110537
#        122387
#        130712
#
# Disc length: 1997 seconds
#
# Revision: 3
# Processed by: cddbd v1.5.2PL0 Copyright (c) Steve Scherf et al.
# Submitted via: ExactAudioCopy v0.99pb3
#
DISCID=9207cb0c
DTITLE=The Amps - Pacer
DYEAR=1995
DGENRE=
TTITLE0=Pacer
TTITLE1=Tipp City
TTITLE2=I Am Decided
TTITLE3=Mom's Drunk
TTITLE4=Bragging Party
TTITLE5=Hoverin
TTITLE6=First Revival
TTITLE7=Full On Idle
TTITLE8=Breaking The Split Screen Barrier
TTITLE9=Empty Glasses
TTITLE10=She's A Girl
TTITLE11=Dedicated
EXTD=
EXTT0=
EXTT1=
EXTT2=
EXTT3=
EXTT4=
EXTT5=
EXTT6=
EXTT7=
EXTT8=
EXTT9=
EXTT10=
EXTT11=
PLAYORDER=
